Animal-Light.ufo
<glyph name="exclam" format="2">
	<advance width="230"/>
	<unicode hex="0021"/>
	<outline>
		<contour>
			<point x="115" y="132" type="curve" smooth="yes"/>
			<point x="129" y="132"/>
			<point x="143" y="145"/>
			<point x="143" y="164" type="curve" smooth="yes"/>
			<point x="154" y="670" type="line" smooth="yes"/>
			<point x="155" y="697"/>
			<point x="137" y="710"/>
			<point x="115" y="710" type="curve" smooth="yes"/>
			<point x="94" y="710"/>
			<point x="75" y="697"/>
			<point x="76" y="670" type="curve" smooth="yes"/>
			<point x="87" y="164" type="line" smooth="yes"/>
			<point x="87" y="145"/>
			<point x="101" y="132"/>
		</contour>
		<component base="period" xOffset="14" yOffset="-1"/>
	</outline>
</glyph>
<glyph name="quotesingle" format="2">
	<advance width="253"/>
	<unicode hex="0027"/>
	<anchor x="98" y="500" name="_top"/>
	<outline>
		<contour>
			<point x="103" y="434" type="curve" smooth="yes"/>
			<point x="90" y="621" type="line" smooth="yes"/>
			<point x="84" y="690"/>
			<point x="167" y="680"/>
			<point x="163" y="629" type="curve" smooth="yes"/>
			<point x="148" y="432" type="line" smooth="yes"/>
			<point x="144" y="403"/>
			<point x="105" y="399"/>
		</contour>
	</outline>
</glyph>
<glyph name="parenleft" format="2">
	<advance width="274"/>
	<unicode hex="0028"/>
	<outline>
		<contour>
			<point x="217" y="-157" type="curve" smooth="yes"/>
			<point x="228" y="-157"/>
			<point x="232" y="-153"/>
			<point x="232" y="-146" type="curve" smooth="yes"/>
			<point x="232" y="-117"/>
			<point x="131" y="47"/>
			<point x="131" y="311" type="curve" smooth="yes"/>
			<point x="131" y="566"/>
			<point x="232" y="722"/>
			<point x="232" y="750" type="curve" smooth="yes"/>
			<point x="232" y="757"/>
			<point x="228" y="761"/>
			<point x="217" y="761" type="curve" smooth="yes"/>
			<point x="203" y="761"/>
			<point x="195" y="755"/>
			<point x="179" y="729" type="curve" smooth="yes"/>
			<point x="105" y="605"/>
			<point x="70" y="451"/>
			<point x="70" y="311" type="curve" smooth="yes"/>
			<point x="70" y="162"/>
			<point x="106" y="-3"/>
			<point x="179" y="-125" type="curve" smooth="yes"/>
			<point x="195" y="-151"/>
			<point x="203" y="-157"/>
		</contour>
	</outline>
</glyph>
<glyph name="zero" format="2">
	<advance width="610"/>
	<unicode hex="0030"/>
	<outline>
		<contour>
			<point x="305" y="-10" type="curve" smooth="yes"/>
			<point x="431" y="-10"/>
			<point x="515" y="134"/>
			<point x="515" y="351" type="curve" smooth="yes"/>
			<point x="515" y="566"/>
			<point x="431" y="710"/>
			<point x="305" y="710" type="curve" smooth="yes"/>
			<point x="179" y="710"/>
			<point x="95" y="566"/>
			<point x="95" y="351" type="curve" smooth="yes"/>
			<point x="95" y="134"/>
			<point x="179" y="-10"/>
		</contour>
		<contour>
			<point x="305" y="40" type="curve" smooth="yes"/>
			<point x="215" y="40"/>
			<point x="155" y="164"/>
			<point x="155" y="351" type="curve" smooth="yes"/>
			<point x="155" y="536"/>
			<point x="215" y="660"/>
			<point x="305" y="660" type="curve" smooth="yes"/>
			<point x="395" y="660"/>
			<point x="455" y="536"/>
			<point x="455" y="351" type="curve" smooth="yes"/>
			<point x="455" y="164"/>
			<point x="395" y="40"/>
		</contour>
	</outline>
</glyph>
<glyph name="two" format="2">
	<advance width="451"/>
	<unicode hex="0032"/>
	<outline>
		<contour>
			<point x="62" y="0" type="curve" smooth="yes"/>
			<point x="379" y="0" type="line" smooth="yes"/>
			<point x="396" y="0"/>
			<point x="409" y="9"/>
			<point x="409" y="22" type="curve" smooth="yes"/>
			<point x="409" y="36"/>
			<point x="396" y="45"/>
			<point x="378" y="45" type="curve" smooth="yes"/>
			<point x="66" y="45" type="line"/>
			<point x="84" y="20" type="line"/>
			<point x="192" y="199"/>
			<point x="404" y="320"/>
			<point x="404" y="527" type="curve" smooth="yes"/>
			<point x="404" y="637"/>
			<point x="321" y="710"/>
			<point x="230" y="710" type="curve" smooth="yes"/>
			<point x="137" y="710"/>
			<point x="52" y="649"/>
			<point x="52" y="557" type="curve" smooth="yes"/>
			<point x="52" y="527"/>
			<point x="70" y="507"/>
			<point x="96" y="507" type="curve" smooth="yes"/>
			<point x="123" y="507"/>
			<point x="140" y="527"/>
			<point x="140" y="557" type="curve" smooth="yes"/>
			<point x="140" y="581"/>
			<point x="123" y="597"/>
			<point x="96" y="597" type="curve"/>
			<point x="98" y="563" type="line"/>
			<point x="98" y="621"/>
			<point x="160" y="660"/>
			<point x="219" y="660" type="curve" smooth="yes"/>
			<point x="277" y="660"/>
			<point x="350" y="603"/>
			<point x="350" y="518" type="curve" smooth="yes"/>
			<point x="350" y="366"/>
			<point x="199" y="248"/>
			<point x="51" y="50" type="curve" smooth="yes"/>
			<point x="30" y="22"/>
			<point x="46" y="0"/>
		</contour>
	</outline>
</glyph>
<glyph name="three" format="2">
	<advance width="487"/>
	<unicode hex="0033"/>
	<outline>
		<contour>
			<point x="221" y="-10" type="curve" smooth="yes"/>
			<point x="343" y="-10"/>
			<point x="424" y="71"/>
			<point x="424" y="193" type="curve" smooth="yes"/>
			<point x="424" y="299"/>
			<point x="333" y="369"/>
			<point x="197" y="369" type="curve"/>
			<point x="197" y="351" type="line"/>
			<point x="307" y="351"/>
			<point x="400" y="423"/>
			<point x="400" y="526" type="curve" smooth="yes"/>
			<point x="400" y="638"/>
			<point x="314" y="710"/>
			<point x="217" y="710" type="curve" smooth="yes"/>
			<point x="117" y="710"/>
			<point x="51" y="645"/>
			<point x="51" y="547" type="curve" smooth="yes"/>
			<point x="51" y="523"/>
			<point x="68" y="507"/>
			<point x="94" y="507" type="curve" smooth="yes"/>
			<point x="121" y="507"/>
			<point x="138" y="523"/>
			<point x="138" y="547" type="curve" smooth="yes"/>
			<point x="138" y="571"/>
			<point x="121" y="587"/>
			<point x="94" y="587" type="curve"/>
			<point x="96" y="563" type="line"/>
			<point x="96" y="621"/>
			<point x="140" y="660"/>
			<point x="206" y="660" type="curve" smooth="yes"/>
			<point x="271" y="660"/>
			<point x="345" y="608"/>
			<point x="345" y="526" type="curve" smooth="yes"/>
			<point x="345" y="442"/>
			<point x="271" y="383"/>
			<point x="205" y="383" type="curve" smooth="yes"/>
			<point x="187" y="383"/>
			<point x="173" y="372"/>
			<point x="173" y="356" type="curve" smooth="yes"/>
			<point x="173" y="342"/>
			<point x="187" y="333"/>
			<point x="205" y="333" type="curve" smooth="yes"/>
			<point x="297" y="333"/>
			<point x="372" y="274"/>
			<point x="372" y="186" type="curve" smooth="yes"/>
			<point x="372" y="98"/>
			<point x="300" y="40"/>
			<point x="213" y="40" type="curve" smooth="yes"/>
			<point x="170" y="40"/>
			<point x="119" y="54"/>
			<point x="86" y="74" type="curve" smooth="yes"/>
			<point x="53" y="94"/>
			<point x="23" y="63"/>
			<point x="55" y="38" type="curve" smooth="yes"/>
			<point x="92" y="9"/>
			<point x="159" y="-10"/>
		</contour>
	</outline>
</glyph>
<glyph name="eight" format="2">
	<advance width="532"/>
	<unicode hex="0038"/>
	<outline>
		<contour>
			<point x="287" y="-10" type="curve"/>
			<point x="287" y="-10" type="line"/>
			<point x="405" y="-10"/>
			<point x="484" y="68"/>
			<point x="484" y="185" type="curve"/>
			<point x="484" y="308"/>
			<point x="405" y="390"/>
			<point x="287" y="390" type="curve"/>
			<point x="165" y="390"/>
			<point x="85" y="308"/>
			<point x="85" y="185" type="curve"/>
			<point x="85" y="68"/>
			<point x="165" y="-10"/>
		</contour>
		<contour>
			<point x="287" y="41" type="curve"/>
			<point x="287" y="41" type="line"/>
			<point x="202" y="41"/>
			<point x="146" y="99"/>
			<point x="146" y="185" type="curve"/>
			<point x="146" y="283"/>
			<point x="202" y="349"/>
			<point x="287" y="349" type="curve"/>
			<point x="368" y="349"/>
			<point x="423" y="283"/>
			<point x="423" y="185" type="curve"/>
			<point x="423" y="99"/>
			<point x="368" y="41"/>
		</contour>
		<contour>
			<point x="287" y="390" type="curve" smooth="yes"/>
			<point x="215" y="390"/>
			<point x="168" y="451"/>
			<point x="168" y="539" type="curve" smooth="yes"/>
			<point x="168" y="611"/>
			<point x="215" y="659"/>
			<point x="287" y="659" type="curve" smooth="yes"/>
			<point x="355" y="659"/>
			<point x="401" y="611"/>
			<point x="401" y="539" type="curve" smooth="yes"/>
			<point x="401" y="451"/>
			<point x="355" y="390"/>
		</contour>
		<contour>
			<point x="287" y="349" type="curve"/>
			<point x="287" y="349" type="line"/>
			<point x="391" y="349"/>
			<point x="462" y="425"/>
			<point x="462" y="539" type="curve"/>
			<point x="462" y="641"/>
			<point x="391" y="709"/>
			<point x="287" y="709" type="curve"/>
			<point x="179" y="709"/>
			<point x="107" y="641"/>
			<point x="107" y="539" type="curve"/>
			<point x="107" y="425"/>
			<point x="179" y="349"/>
		</contour>
	</outline>
</glyph>
<glyph name="C" format="2">
	<advance width="537"/>
	<unicode hex="0043"/>
	<guideline x="87" y="129" angle="90"/>
	<outline>
		<contour>
			<point x="320" y="-10" type="curve" smooth="yes"/>
			<point x="425" y="-10"/>
			<point x="495" y="51"/>
			<point x="495" y="142" type="curve" smooth="yes"/>
			<point x="495" y="165"/>
			<point x="485" y="180"/>
			<point x="470" y="180" type="curve" smooth="yes"/>
			<point x="455" y="180"/>
			<point x="445" y="165"/>
			<point x="445" y="142" type="curve" smooth="yes"/>
			<point x="445" y="81"/>
			<point x="395" y="40"/>
			<point x="320" y="40" type="curve" smooth="yes"/>
			<point x="195" y="40"/>
			<point x="155" y="164"/>
			<point x="155" y="350" type="curve" smooth="yes"/>
			<point x="155" y="586"/>
			<point x="221" y="660"/>
			<point x="320" y="660" type="curve" smooth="yes"/>
			<point x="397" y="660"/>
			<point x="444" y="607"/>
			<point x="444" y="527" type="curve"/>
			<point x="449" y="549" type="line"/>
			<point x="431" y="549"/>
			<point x="419" y="536"/>
			<point x="419" y="517" type="curve" smooth="yes"/>
			<point x="419" y="494"/>
			<point x="433" y="479"/>
			<point x="454" y="479" type="curve" smooth="yes"/>
			<point x="475" y="479"/>
			<point x="489" y="498"/>
			<point x="489" y="527" type="curve" smooth="yes"/>
			<point x="489" y="637"/>
			<point x="421" y="710"/>
			<point x="320" y="710" type="curve" smooth="yes"/>
			<point x="149" y="710"/>
			<point x="95" y="566"/>
			<point x="95" y="350" type="curve" smooth="yes"/>
			<point x="95" y="76"/>
			<point x="185" y="-10"/>
		</contour>
	</outline>
</glyph>
<glyph name="F" format="2">
	<advance width="442"/>
	<unicode hex="0046"/>
	<outline>
		<contour>
			<point x="129" y="-10" type="curve" smooth="yes"/>
			<point x="148" y="-10"/>
			<point x="160" y="6"/>
			<point x="160" y="30" type="curve" smooth="yes"/>
			<point x="160" y="665" type="line"/>
			<point x="152" y="650" type="line"/>
			<point x="393" y="650" type="line" smooth="yes"/>
			<point x="410" y="650"/>
			<point x="422" y="660"/>
			<point x="422" y="675" type="curve" smooth="yes"/>
			<point x="422" y="690"/>
			<point x="410" y="700"/>
			<point x="392" y="700" type="curve" smooth="yes"/>
			<point x="130" y="700" type="line" smooth="yes"/>
			<point x="112" y="700"/>
			<point x="100" y="688"/>
			<point x="100" y="670" type="curve" smooth="yes"/>
			<point x="100" y="30" type="line" smooth="yes"/>
			<point x="100" y="6"/>
			<point x="112" y="-10"/>
		</contour>
		<contour>
			<point x="147" y="321" type="line"/>
			<point x="308" y="321" type="line" smooth="yes"/>
			<point x="326" y="321"/>
			<point x="338" y="331"/>
			<point x="338" y="346" type="curve" smooth="yes"/>
			<point x="338" y="361"/>
			<point x="326" y="371"/>
			<point x="308" y="371" type="curve" smooth="yes"/>
			<point x="147" y="371" type="line"/>
		</contour>
	</outline>
</glyph>
<glyph name="M" format="2">
	<advance width="795"/>
	<unicode hex="004D"/>
	<outline>
		<contour>
			<point x="95" y="29" type="line" smooth="yes"/>
			<point x="93" y="3"/>
			<point x="99" y="-10"/>
			<point x="115" y="-10" type="curve" smooth="yes"/>
			<point x="129" y="-10"/>
			<point x="145" y="2"/>
			<point x="146" y="23" type="curve" smooth="yes"/>
			<point x="194" y="659" type="line"/>
			<point x="204" y="659" type="line"/>
			<point x="345" y="174" type="line" smooth="yes"/>
			<point x="352" y="149"/>
			<point x="372" y="136"/>
			<point x="392" y="136" type="curve" smooth="yes"/>
			<point x="411" y="136"/>
			<point x="431" y="149"/>
			<point x="438" y="174" type="curve" smooth="yes"/>
			<point x="571" y="659" type="line"/>
			<point x="582" y="659" type="line"/>
			<point x="639" y="22" type="line" smooth="yes"/>
			<point x="641" y="0"/>
			<point x="656" y="-11"/>
			<point x="672" y="-11" type="curve" smooth="yes"/>
			<point x="688" y="-11"/>
			<point x="701" y="2"/>
			<point x="698" y="28" type="curve" smooth="yes"/>
			<point x="632" y="667" type="line" smooth="yes"/>
			<point x="629" y="695"/>
			<point x="607" y="709"/>
			<point x="580" y="709" type="curve" smooth="yes"/>
			<point x="553" y="709"/>
			<point x="535" y="695"/>
			<point x="527" y="666" type="curve" smooth="yes"/>
			<point x="396" y="187" type="line"/>
			<point x="387" y="187" type="line"/>
			<point x="247" y="667" type="line" smooth="yes"/>
			<point x="239" y="695"/>
			<point x="221" y="709"/>
			<point x="194" y="709" type="curve" smooth="yes"/>
			<point x="168" y="709"/>
			<point x="151" y="695"/>
			<point x="149" y="667" type="curve" smooth="yes"/>
		</contour>
	</outline>
</glyph>
<glyph name="Q" format="2">
	<advance width="615"/>
	<unicode hex="0051"/>
	<outline>
		<contour>
			<point x="462" y="-153" type="curve" smooth="yes"/>
			<point x="495" y="-153"/>
			<point x="520" y="-143"/>
			<point x="520" y="-115" type="curve" smooth="yes"/>
			<point x="520" y="-62"/>
			<point x="425" y="-121"/>
			<point x="328" y="-13" type="curve"/>
			<point x="328" y="-9" type="line"/>
			<point x="462" y="21"/>
			<point x="502" y="172"/>
			<point x="502" y="351" type="curve" smooth="yes"/>
			<point x="502" y="626"/>
			<point x="453" y="710"/>
			<point x="299" y="710" type="curve" smooth="yes"/>
			<point x="145" y="710"/>
			<point x="95" y="605"/>
			<point x="95" y="351" type="curve" smooth="yes"/>
			<point x="95" y="119"/>
			<point x="167" y="-8"/>
			<point x="285" y="-8" type="curve"/>
			<point x="325" y="-111"/>
			<point x="392" y="-153"/>
		</contour>
		<contour>
			<point x="299" y="42" type="curve" smooth="yes"/>
			<point x="189" y="42"/>
			<point x="152" y="148"/>
			<point x="152" y="351" type="curve" smooth="yes"/>
			<point x="152" y="557"/>
			<point x="189" y="655"/>
			<point x="299" y="655" type="curve" smooth="yes"/>
			<point x="410" y="655"/>
			<point x="445" y="562"/>
			<point x="445" y="351" type="curve" smooth="yes"/>
			<point x="445" y="150"/>
			<point x="402" y="42"/>
		</contour>
	</outline>
</glyph>
<glyph name="S" format="2">
	<advance width="528"/>
	<unicode hex="0053"/>
	<outline>
		<contour>
			<point x="265" y="-9" type="curve" smooth="yes"/>
			<point x="387" y="-9"/>
			<point x="468" y="61"/>
			<point x="468" y="165" type="curve" smooth="yes"/>
			<point x="468" y="398"/>
			<point x="154" y="349"/>
			<point x="154" y="533" type="curve" smooth="yes"/>
			<point x="154" y="609"/>
			<point x="201" y="660"/>
			<point x="272" y="660" type="curve" smooth="yes"/>
			<point x="348" y="660"/>
			<point x="398" y="619"/>
			<point x="398" y="557" type="curve"/>
			<point x="408" y="600" type="line"/>
			<point x="384" y="600"/>
			<point x="368" y="583"/>
			<point x="368" y="558" type="curve" smooth="yes"/>
			<point x="368" y="535"/>
			<point x="384" y="520"/>
			<point x="408" y="520" type="curve" smooth="yes"/>
			<point x="432" y="520"/>
			<point x="448" y="535"/>
			<point x="448" y="557" type="curve" smooth="yes"/>
			<point x="448" y="649"/>
			<point x="381" y="710"/>
			<point x="280" y="710" type="curve" smooth="yes"/>
			<point x="169" y="710"/>
			<point x="95" y="636"/>
			<point x="95" y="526" type="curve" smooth="yes"/>
			<point x="95" y="304"/>
			<point x="405" y="354"/>
			<point x="405" y="159" type="curve" smooth="yes"/>
			<point x="405" y="88"/>
			<point x="349" y="41"/>
			<point x="265" y="41" type="curve" smooth="yes"/>
			<point x="219" y="41"/>
			<point x="162" y="63"/>
			<point x="122" y="95" type="curve" smooth="yes"/>
			<point x="86" y="124"/>
			<point x="52" y="82"/>
			<point x="90" y="49" type="curve" smooth="yes"/>
			<point x="133" y="12"/>
			<point x="200" y="-9"/>
		</contour>
	</outline>
</glyph>
<glyph name="W" format="2">
	<advance width="724"/>
	<unicode hex="0057"/>
	<outline>
		<contour>
			<point x="195" y="-11" type="curve" smooth="yes"/>
			<point x="225" y="-11"/>
			<point x="243" y="6"/>
			<point x="248" y="31" type="curve" smooth="yes"/>
			<point x="352" y="592" type="line"/>
			<point x="340" y="579" type="line"/>
			<point x="386" y="579" type="line"/>
			<point x="363" y="592" type="line"/>
			<point x="468" y="32" type="line" smooth="yes"/>
			<point x="473" y="6"/>
			<point x="490" y="-11"/>
			<point x="521" y="-11" type="curve" smooth="yes"/>
			<point x="547" y="-11"/>
			<point x="564" y="6"/>
			<point x="568" y="31" type="curve" smooth="yes"/>
			<point x="674" y="670" type="line" smooth="yes"/>
			<point x="678" y="693"/>
			<point x="672" y="709"/>
			<point x="653" y="709" type="curve" smooth="yes"/>
			<point x="636" y="709"/>
			<point x="623" y="696"/>
			<point x="620" y="676" type="curve" smooth="yes"/>
			<point x="522" y="31" type="line"/>
			<point x="551" y="39" type="line"/>
			<point x="492" y="39" type="line"/>
			<point x="514" y="31" type="line"/>
			<point x="409" y="592" type="line" smooth="yes"/>
			<point x="405" y="615"/>
			<point x="388" y="630"/>
			<point x="357" y="630" type="curve" smooth="yes"/>
			<point x="327" y="630"/>
			<point x="310" y="615"/>
			<point x="306" y="592" type="curve" smooth="yes"/>
			<point x="202" y="30" type="line"/>
			<point x="212" y="39" type="line"/>
			<point x="169" y="39" type="line"/>
			<point x="196" y="30" type="line"/>
			<point x="107" y="675" type="line" smooth="yes"/>
			<point x="104" y="695"/>
			<point x="92" y="708"/>
			<point x="76" y="708" type="curve" smooth="yes"/>
			<point x="58" y="708"/>
			<point x="53" y="692"/>
			<point x="56" y="669" type="curve" smooth="yes"/>
			<point x="150" y="31" type="line" smooth="yes"/>
			<point x="154" y="6"/>
			<point x="169" y="-11"/>
		</contour>
	</outline>
</glyph>
<glyph name="X" format="2">
	<advance width="561"/>
	<unicode hex="0058"/>
	<guideline x="331" y="348" angle="62.9581"/>
	<outline>
		<contour>
			<point x="483" y="-10" type="curve" smooth="yes"/>
			<point x="510" y="-10"/>
			<point x="520" y="20"/>
			<point x="501" y="52" type="curve" smooth="yes"/>
			<point x="142" y="676" type="line" smooth="yes"/>
			<point x="128" y="701"/>
			<point x="112" y="710"/>
			<point x="99" y="710" type="curve" smooth="yes"/>
			<point x="77" y="710"/>
			<point x="66" y="686"/>
			<point x="81" y="659" type="curve" smooth="yes"/>
			<point x="444" y="18" type="line" smooth="yes"/>
			<point x="455" y="-1"/>
			<point x="469" y="-10"/>
		</contour>
		<contour>
			<point x="94" y="-10" type="curve" smooth="yes"/>
			<point x="105" y="-10"/>
			<point x="117" y="-3"/>
			<point x="126" y="13" type="curve" smooth="yes"/>
			<point x="306" y="331" type="line"/>
			<point x="274" y="390" type="line"/>
			<point x="72" y="32" type="line" smooth="yes"/>
			<point x="62" y="14"/>
			<point x="70" y="-10"/>
		</contour>
		<contour>
			<point x="285" y="375" type="line"/>
			<point x="313" y="314" type="line"/>
			<point x="514" y="653" type="line" smooth="yes"/>
			<point x="526" y="674"/>
			<point x="517" y="710"/>
			<point x="494" y="710" type="curve" smooth="yes"/>
			<point x="481" y="710"/>
			<point x="468" y="704"/>
			<point x="457" y="685" type="curve" smooth="yes"/>
		</contour>
	</outline>
</glyph>
<glyph name="underscore" format="2">
	<advance width="415"/>
	<unicode hex="005F"/>
	<outline>
		<contour>
			<point x="68" y="0" type="curve" smooth="yes"/>
			<point x="347" y="0" type="line" smooth="yes"/>
			<point x="365" y="0"/>
			<point x="377" y="10"/>
			<point x="377" y="25" type="curve" smooth="yes"/>
			<point x="377" y="40"/>
			<point x="365" y="50"/>
			<point x="347" y="50" type="curve" smooth="yes"/>
			<point x="69" y="50" type="line" smooth="yes"/>
			<point x="51" y="50"/>
			<point x="38" y="40"/>
			<point x="38" y="25" type="curve" smooth="yes"/>
			<point x="38" y="10"/>
			<point x="51" y="0"/>
		</contour>
	</outline>
</glyph>
<glyph name="a" format="2">
	<advance width="524"/>
	<unicode hex="0061"/>
	<anchor x="281" y="500" name="top"/>
	<outline>
		<contour>
			<point x="414" y="-11" type="curve" smooth="yes"/>
			<point x="429" y="-11"/>
			<point x="439" y="1"/>
			<point x="439" y="19" type="curve"/>
			<point x="439" y="352" type="line" smooth="yes"/>
			<point x="439" y="447"/>
			<point x="370" y="510"/>
			<point x="266" y="510" type="curve" smooth="yes"/>
			<point x="172" y="510"/>
			<point x="103" y="456"/>
			<point x="103" y="376" type="curve" smooth="yes"/>
			<point x="103" y="358"/>
			<point x="118" y="345"/>
			<point x="136" y="345" type="curve" smooth="yes"/>
			<point x="154" y="345"/>
			<point x="166" y="357"/>
			<point x="166" y="375" type="curve" smooth="yes"/>
			<point x="166" y="391"/>
			<point x="156" y="401"/>
			<point x="141" y="401" type="curve"/>
			<point x="146" y="380" type="line"/>
			<point x="146" y="434"/>
			<point x="194" y="470"/>
			<point x="261" y="470" type="curve" smooth="yes"/>
			<point x="338" y="470"/>
			<point x="389" y="422"/>
			<point x="389" y="351" type="curve" smooth="yes"/>
			<point x="389" y="169" type="line" smooth="yes"/>
			<point x="389" y="92"/>
			<point x="341" y="34"/>
			<point x="253" y="34" type="curve" smooth="yes"/>
			<point x="170" y="34"/>
			<point x="135" y="73"/>
			<point x="135" y="133" type="curve" smooth="yes"/>
			<point x="135" y="220"/>
			<point x="195" y="240"/>
			<point x="275" y="240" type="curve" smooth="yes"/>
			<point x="314" y="240"/>
			<point x="357" y="232"/>
			<point x="399" y="218" type="curve"/>
			<point x="403" y="264" type="line"/>
			<point x="358" y="277"/>
			<point x="312" y="284"/>
			<point x="269" y="284" type="curve" smooth="yes"/>
			<point x="174" y="284"/>
			<point x="85" y="245"/>
			<point x="85" y="134" type="curve" smooth="yes"/>
			<point x="85" y="51"/>
			<point x="122" y="-10"/>
			<point x="247" y="-10" type="curve" smooth="yes"/>
			<point x="312" y="-10"/>
			<point x="362" y="16"/>
			<point x="387" y="67" type="curve"/>
			<point x="389" y="67" type="line"/>
			<point x="389" y="19" type="line"/>
			<point x="389" y="1"/>
			<point x="399" y="-11"/>
		</contour>
	</outline>
</glyph>
<glyph name="b" format="2">
	<advance width="526"/>
	<unicode hex="0062"/>
	<outline>
		<contour>
			<point x="240" y="-10" type="curve" smooth="yes"/>
			<point x="361" y="-10"/>
			<point x="441" y="97"/>
			<point x="441" y="257" type="curve" smooth="yes"/>
			<point x="441" y="409"/>
			<point x="379" y="510"/>
			<point x="286" y="510" type="curve" smooth="yes"/>
			<point x="217" y="510"/>
			<point x="166" y="472"/>
			<point x="144" y="412" type="curve"/>
			<point x="142" y="412" type="line"/>
			<point x="142" y="730" type="line" smooth="yes"/>
			<point x="142" y="748"/>
			<point x="131" y="760"/>
			<point x="115" y="760" type="curve" smooth="yes"/>
			<point x="99" y="760"/>
			<point x="88" y="748"/>
			<point x="88" y="730" type="curve" smooth="yes"/>
			<point x="88" y="63" type="line" smooth="yes"/>
			<point x="88" y="45"/>
			<point x="94" y="30"/>
			<point x="110" y="22" type="curve" smooth="yes"/>
			<point x="142" y="5"/>
			<point x="190" y="-10"/>
		</contour>
		<contour>
			<point x="242" y="40" type="curve" smooth="yes"/>
			<point x="204" y="40"/>
			<point x="166" y="50"/>
			<point x="142" y="66" type="curve"/>
			<point x="142" y="342" type="line" smooth="yes"/>
			<point x="142" y="413"/>
			<point x="189" y="460"/>
			<point x="259" y="460" type="curve" smooth="yes"/>
			<point x="335" y="460"/>
			<point x="386" y="378"/>
			<point x="386" y="255" type="curve" smooth="yes"/>
			<point x="386" y="126"/>
			<point x="328" y="40"/>
		</contour>
	</outline>
</glyph>
<glyph name="c" format="2">
	<advance width="485"/>
	<unicode hex="0063"/>
	<guideline x="414" y="381" angle="90"/>
	<outline>
		<contour>
			<point x="275" y="-10" type="curve" smooth="yes"/>
			<point x="328" y="-10"/>
			<point x="368" y="4"/>
			<point x="397" y="25" type="curve" smooth="yes"/>
			<point x="437" y="54"/>
			<point x="403" y="93"/>
			<point x="366" y="65" type="curve" smooth="yes"/>
			<point x="346" y="50"/>
			<point x="318" y="40"/>
			<point x="270" y="40" type="curve" smooth="yes"/>
			<point x="176" y="40"/>
			<point x="140" y="124"/>
			<point x="140" y="250" type="curve" smooth="yes"/>
			<point x="140" y="401"/>
			<point x="194" y="460"/>
			<point x="275" y="460" type="curve" smooth="yes"/>
			<point x="337" y="460"/>
			<point x="379" y="437"/>
			<point x="379" y="381" type="curve"/>
			<point x="379" y="412" type="line"/>
			<point x="358" y="412"/>
			<point x="344" y="398"/>
			<point x="344" y="377" type="curve" smooth="yes"/>
			<point x="344" y="356"/>
			<point x="358" y="342"/>
			<point x="379" y="342" type="curve" smooth="yes"/>
			<point x="400" y="342"/>
			<point x="414" y="358"/>
			<point x="414" y="381" type="curve" smooth="yes"/>
			<point x="414" y="458"/>
			<point x="358" y="510"/>
			<point x="275" y="510" type="curve" smooth="yes"/>
			<point x="138" y="510"/>
			<point x="85" y="406"/>
			<point x="85" y="250" type="curve" smooth="yes"/>
			<point x="85" y="63"/>
			<point x="161" y="-10"/>
		</contour>
	</outline>
</glyph>
<glyph name="h" format="2">
	<advance width="537"/>
	<unicode hex="0068"/>
	<outline>
		<contour>
			<point x="127" y="-10" type="curve" smooth="yes"/>
			<point x="143" y="-10"/>
			<point x="154" y="2"/>
			<point x="154" y="20" type="curve" smooth="yes"/>
			<point x="154" y="344" type="line" smooth="yes"/>
			<point x="154" y="419"/>
			<point x="203" y="469"/>
			<point x="276" y="469" type="curve" smooth="yes"/>
			<point x="349" y="469"/>
			<point x="398" y="419"/>
			<point x="398" y="344" type="curve" smooth="yes"/>
			<point x="398" y="20" type="line" smooth="yes"/>
			<point x="398" y="2"/>
			<point x="409" y="-10"/>
			<point x="425" y="-10" type="curve" smooth="yes"/>
			<point x="441" y="-10"/>
			<point x="452" y="2"/>
			<point x="452" y="20" type="curve" smooth="yes"/>
			<point x="452" y="344" type="line" smooth="yes"/>
			<point x="452" y="443"/>
			<point x="389" y="509"/>
			<point x="295" y="509" type="curve" smooth="yes"/>
			<point x="231" y="509"/>
			<point x="182" y="479"/>
			<point x="156" y="428" type="curve"/>
			<point x="154" y="428" type="line"/>
			<point x="154" y="731" type="line"/>
			<point x="154" y="749"/>
			<point x="143" y="761"/>
			<point x="127" y="761" type="curve" smooth="yes"/>
			<point x="111" y="761"/>
			<point x="100" y="749"/>
			<point x="100" y="731" type="curve" smooth="yes"/>
			<point x="100" y="20" type="line" smooth="yes"/>
			<point x="100" y="2"/>
			<point x="111" y="-10"/>
		</contour>
	</outline>
</glyph>
<glyph name="o" format="2">
	<advance width="532"/>
	<unicode hex="006F"/>
	<anchor x="266" y="500" name="top"/>
	<outline>
		<contour>
			<point x="267" y="-10" type="curve" smooth="yes"/>
			<point x="397" y="-10"/>
			<point x="447" y="94"/>
			<point x="447" y="250" type="curve" smooth="yes"/>
			<point x="447" y="437"/>
			<point x="375" y="510"/>
			<point x="267" y="510" type="curve" smooth="yes"/>
			<point x="136" y="510"/>
			<point x="85" y="406"/>
			<point x="85" y="250" type="curve" smooth="yes"/>
			<point x="85" y="63"/>
			<point x="158" y="-10"/>
		</contour>
		<contour>
			<point x="269" y="31" type="curve" smooth="yes"/>
			<point x="176" y="31"/>
			<point x="140" y="119"/>
			<point x="140" y="250" type="curve" smooth="yes"/>
			<point x="140" y="408"/>
			<point x="191" y="469"/>
			<point x="267" y="469" type="curve" smooth="yes"/>
			<point x="357" y="469"/>
			<point x="392" y="381"/>
			<point x="392" y="250" type="curve" smooth="yes"/>
			<point x="392" y="92"/>
			<point x="343" y="31"/>
		</contour>
	</outline>
</glyph>
<glyph name="w" format="2">
	<advance width="713"/>
	<unicode hex="0077"/>
	<outline>
		<contour>
			<point x="209" y="-11" type="curve" smooth="yes"/>
			<point x="236" y="-11"/>
			<point x="256" y="3"/>
			<point x="261" y="31" type="curve" smooth="yes"/>
			<point x="345" y="472" type="line"/>
			<point x="339" y="459" type="line"/>
			<point x="380" y="459" type="line"/>
			<point x="368" y="472" type="line"/>
			<point x="443" y="32" type="line" smooth="yes"/>
			<point x="448" y="3"/>
			<point x="468" y="-11"/>
			<point x="495" y="-11" type="curve" smooth="yes"/>
			<point x="522" y="-11"/>
			<point x="534" y="3"/>
			<point x="541" y="31" type="curve" smooth="yes"/>
			<point x="647" y="470" type="line" smooth="yes"/>
			<point x="653" y="496"/>
			<point x="643" y="509"/>
			<point x="627" y="509" type="curve" smooth="yes"/>
			<point x="611" y="509"/>
			<point x="599" y="498"/>
			<point x="594" y="476" type="curve" smooth="yes"/>
			<point x="496" y="31" type="line"/>
			<point x="525" y="39" type="line"/>
			<point x="466" y="39" type="line"/>
			<point x="488" y="31" type="line"/>
			<point x="413" y="472" type="line" smooth="yes"/>
			<point x="409" y="497"/>
			<point x="383" y="510"/>
			<point x="356" y="510" type="curve" smooth="yes"/>
			<point x="330" y="510"/>
			<point x="305" y="497"/>
			<point x="300" y="472" type="curve" smooth="yes"/>
			<point x="216" y="30" type="line"/>
			<point x="226" y="39" type="line"/>
			<point x="183" y="39" type="line"/>
			<point x="210" y="30" type="line"/>
			<point x="121" y="475" type="line" smooth="yes"/>
			<point x="117" y="496"/>
			<point x="104" y="508"/>
			<point x="90" y="508" type="curve" smooth="yes"/>
			<point x="74" y="508"/>
			<point x="65" y="495"/>
			<point x="71" y="469" type="curve" smooth="yes"/>
			<point x="165" y="31" type="line" smooth="yes"/>
			<point x="171" y="3"/>
			<point x="183" y="-11"/>
		</contour>
	</outline>
</glyph>
<glyph name="y" format="2">
	<advance width="533"/>
	<unicode hex="0079"/>
	<outline>
		<contour>
			<point x="187" y="-210" type="curve" smooth="yes"/>
			<point x="256" y="-210"/>
			<point x="290" y="-163"/>
			<point x="347" y="43" type="curve" smooth="yes"/>
			<point x="467" y="477" type="line" smooth="yes"/>
			<point x="473" y="498"/>
			<point x="462" y="510"/>
			<point x="449" y="510" type="curve" smooth="yes"/>
			<point x="438" y="510"/>
			<point x="426" y="502"/>
			<point x="421" y="483" type="curve" smooth="yes"/>
			<point x="297" y="45" type="line" smooth="yes"/>
			<point x="242" y="-148"/>
			<point x="221" y="-170"/>
			<point x="188" y="-170" type="curve" smooth="yes"/>
			<point x="153" y="-170"/>
			<point x="130" y="-153"/>
			<point x="130" y="-128" type="curve"/>
			<point x="130" y="-158" type="line"/>
			<point x="154" y="-158"/>
			<point x="170" y="-142"/>
			<point x="170" y="-119" type="curve" smooth="yes"/>
			<point x="170" y="-95"/>
			<point x="154" y="-79"/>
			<point x="130" y="-79" type="curve" smooth="yes"/>
			<point x="106" y="-79"/>
			<point x="90" y="-95"/>
			<point x="90" y="-119" type="curve" smooth="yes"/>
			<point x="90" y="-174"/>
			<point x="129" y="-210"/>
		</contour>
		<contour>
			<point x="272" y="-8" type="curve" smooth="yes"/>
			<point x="311" y="-8"/>
			<point x="337" y="12"/>
			<point x="337" y="42" type="curve"/>
			<point x="309" y="42" type="line"/>
			<point x="251" y="42" type="line"/>
			<point x="276" y="35" type="line"/>
			<point x="133" y="477" type="line" smooth="yes"/>
			<point x="126" y="500"/>
			<point x="112" y="510"/>
			<point x="101" y="510" type="curve" smooth="yes"/>
			<point x="87" y="510"/>
			<point x="75" y="495"/>
			<point x="82" y="474" type="curve" smooth="yes"/>
			<point x="224" y="35" type="line" smooth="yes"/>
			<point x="232" y="9"/>
			<point x="251" y="-8"/>
		</contour>
	</outline>
</glyph>
<glyph name="dieresis" format="2">
	<advance width="600"/>
	<unicode hex="00A8"/>
	<anchor x="315" y="500" name="_top"/>
	<outline>
		<contour>
			<point x="420" y="600" type="curve" smooth="yes"/>
			<point x="445" y="600"/>
			<point x="461" y="618"/>
			<point x="461" y="642" type="curve" smooth="yes"/>
			<point x="461" y="666"/>
			<point x="445" y="682"/>
			<point x="420" y="682" type="curve" smooth="yes"/>
			<point x="397" y="682"/>
			<point x="381" y="666"/>
			<point x="381" y="642" type="curve" smooth="yes"/>
			<point x="381" y="618"/>
			<point x="397" y="600"/>
		</contour>
		<contour>
			<point x="208" y="600" type="curve" smooth="yes"/>
			<point x="233" y="600"/>
			<point x="248" y="618"/>
			<point x="248" y="642" type="curve" smooth="yes"/>
			<point x="248" y="666"/>
			<point x="233" y="682"/>
			<point x="208" y="682" type="curve" smooth="yes"/>
			<point x="185" y="682"/>
			<point x="169" y="666"/>
			<point x="169" y="642" type="curve" smooth="yes"/>
			<point x="169" y="618"/>
			<point x="185" y="600"/>
		</contour>
	</outline>
</glyph>
<glyph name="acute" format="2">
	<advance width="258"/>
	<unicode hex="00B4"/>
	<guideline x="49" y="624" angle="229.5739"/>
	<anchor x="98" y="500" name="_top"/>
	<outline>
		<contour>
			<point x="75" y="566" type="curve" smooth="yes"/>
			<point x="172" y="696" type="line" smooth="yes"/>
			<point x="197" y="730"/>
			<point x="143" y="773"/>
			<point x="117" y="723" type="curve" smooth="yes"/>
			<point x="45" y="587" type="line" smooth="yes"/>
			<point x="31" y="561"/>
			<point x="60" y="546"/>
		</contour>
	</outline>
</glyph>
<glyph name="ae" format="2">
	<advance width="807"/>
	<unicode hex="00E6"/>
	<anchor x="281" y="500" name="top"/>
	<outline>
		<contour>
			<point x="247" y="-10" type="curve" smooth="yes"/>
			<point x="319" y="-10"/>
			<point x="391" y="24"/>
			<point x="418" y="115" type="curve"/>
			<point x="420" y="115" type="line"/>
			<point x="439" y="36"/>
			<point x="519" y="-10"/>
			<point x="593" y="-10" type="curve" smooth="yes"/>
			<point x="643" y="-10"/>
			<point x="686" y="-5"/>
			<point x="727" y="22" type="curve" smooth="yes"/>
			<point x="771" y="51"/>
			<point x="742" y="95"/>
			<point x="697" y="65" type="curve" smooth="yes"/>
			<point x="670" y="47"/>
			<point x="633" y="40"/>
			<point x="588" y="40" type="curve" smooth="yes"/>
			<point x="500" y="40"/>
			<point x="444" y="119"/>
			<point x="440" y="238" type="curve"/>
			<point x="735" y="238" type="line" smooth="yes"/>
			<point x="750" y="238"/>
			<point x="759" y="250"/>
			<point x="759" y="267" type="curve" smooth="yes"/>
			<point x="759" y="395"/>
			<point x="718" y="510"/>
			<point x="581" y="510" type="curve" smooth="yes"/>
			<point x="511" y="510"/>
			<point x="450" y="460"/>
			<point x="428" y="405" type="curve"/>
			<point x="426" y="405" type="line"/>
			<point x="404" y="461"/>
			<point x="340" y="510"/>
			<point x="266" y="510" type="curve" smooth="yes"/>
			<point x="172" y="510"/>
			<point x="103" y="456"/>
			<point x="103" y="376" type="curve" smooth="yes"/>
			<point x="103" y="358"/>
			<point x="118" y="345"/>
			<point x="136" y="345" type="curve" smooth="yes"/>
			<point x="154" y="345"/>
			<point x="166" y="357"/>
			<point x="166" y="375" type="curve" smooth="yes"/>
			<point x="166" y="388"/>
			<point x="159" y="397"/>
			<point x="148" y="400" type="curve"/>
			<point x="159" y="443"/>
			<point x="203" y="470"/>
			<point x="261" y="470" type="curve" smooth="yes"/>
			<point x="338" y="470"/>
			<point x="389" y="422"/>
			<point x="389" y="351" type="curve" smooth="yes"/>
			<point x="389" y="280" type="line"/>
			<point x="269" y="280" type="line" smooth="yes"/>
			<point x="174" y="280"/>
			<point x="85" y="245"/>
			<point x="85" y="134" type="curve" smooth="yes"/>
			<point x="85" y="51"/>
			<point x="122" y="-10"/>
		</contour>
		<contour>
			<point x="253" y="34" type="curve" smooth="yes"/>
			<point x="170" y="34"/>
			<point x="135" y="73"/>
			<point x="135" y="133" type="curve" smooth="yes"/>
			<point x="135" y="220"/>
			<point x="195" y="238"/>
			<point x="275" y="238" type="curve" smooth="yes"/>
			<point x="389" y="238" type="line"/>
			<point x="389" y="169" type="line" smooth="yes"/>
			<point x="389" y="92"/>
			<point x="341" y="34"/>
		</contour>
		<contour>
			<point x="440" y="280" type="line"/>
			<point x="443" y="409"/>
			<point x="515" y="460"/>
			<point x="582" y="460" type="curve" smooth="yes"/>
			<point x="652" y="460"/>
			<point x="695" y="407"/>
			<point x="707" y="323" type="curve" smooth="yes"/>
			<point x="709" y="309"/>
			<point x="710" y="295"/>
			<point x="711" y="280" type="curve"/>
		</contour>
	</outline>
</glyph>
<glyph name="idieresis" format="2">
	<advance width="226"/>
	<unicode hex="00EF"/>
	<anchor x="112" y="500" name="_top"/>
	<outline>
		<contour>
			<point x="177" y="600" type="curve" smooth="yes"/>
			<point x="202" y="600"/>
			<point x="218" y="618"/>
			<point x="218" y="642" type="curve" smooth="yes"/>
			<point x="218" y="666"/>
			<point x="202" y="682"/>
			<point x="177" y="682" type="curve" smooth="yes"/>
			<point x="154" y="682"/>
			<point x="138" y="666"/>
			<point x="138" y="642" type="curve" smooth="yes"/>
			<point x="138" y="618"/>
			<point x="154" y="600"/>
		</contour>
		<contour>
			<point x="45" y="600" type="curve" smooth="yes"/>
			<point x="70" y="600"/>
			<point x="85" y="618"/>
			<point x="85" y="642" type="curve" smooth="yes"/>
			<point x="85" y="666"/>
			<point x="70" y="682"/>
			<point x="45" y="682" type="curve" smooth="yes"/>
			<point x="22" y="682"/>
			<point x="6" y="666"/>
			<point x="6" y="642" type="curve" smooth="yes"/>
			<point x="6" y="618"/>
			<point x="22" y="600"/>
		</contour>
		<component base="dotlessi"/>
	</outline>
</glyph>
<glyph name="dotlessi" format="2">
	<advance width="226"/>
	<unicode hex="0131"/>
	<anchor x="112" y="500" name="top"/>
	<outline>
		<contour>
			<point x="112" y="-10" type="curve" smooth="yes"/>
			<point x="129" y="-10"/>
			<point x="140" y="2"/>
			<point x="140" y="20" type="curve" smooth="yes"/>
			<point x="140" y="480" type="line" smooth="yes"/>
			<point x="140" y="498"/>
			<point x="129" y="510"/>
			<point x="113" y="510" type="curve" smooth="yes"/>
			<point x="97" y="510"/>
			<point x="86" y="498"/>
			<point x="86" y="480" type="curve" smooth="yes"/>
			<point x="86" y="20" type="line" smooth="yes"/>
			<point x="86" y="2"/>
			<point x="96" y="-10"/>
		</contour>
	</outline>
</glyph>
<glyph name="oe" format="2">
	<advance width="813"/>
	<unicode hex="0153"/>
	<anchor x="815" y="500" name="top"/>
	<outline>
		<contour>
			<point x="267" y="-10" type="curve" smooth="yes"/>
			<point x="343" y="-10"/>
			<point x="393" y="26"/>
			<point x="420" y="100" type="curve"/>
			<point x="424" y="100" type="line"/>
			<point x="462" y="19"/>
			<point x="527" y="-10"/>
			<point x="599" y="-10" type="curve" smooth="yes"/>
			<point x="648" y="-10"/>
			<point x="691" y="-5"/>
			<point x="732" y="22" type="curve" smooth="yes"/>
			<point x="776" y="51"/>
			<point x="748" y="95"/>
			<point x="703" y="65" type="curve" smooth="yes"/>
			<point x="676" y="47"/>
			<point x="639" y="40"/>
			<point x="594" y="40" type="curve" smooth="yes"/>
			<point x="505" y="40"/>
			<point x="450" y="119"/>
			<point x="446" y="238" type="curve"/>
			<point x="741" y="238" type="line" smooth="yes"/>
			<point x="755" y="238"/>
			<point x="765" y="250"/>
			<point x="765" y="267" type="curve" smooth="yes"/>
			<point x="765" y="395"/>
			<point x="724" y="510"/>
			<point x="586" y="510" type="curve" smooth="yes"/>
			<point x="510" y="510"/>
			<point x="455" y="473"/>
			<point x="423" y="400" type="curve"/>
			<point x="420" y="400" type="line"/>
			<point x="389" y="481"/>
			<point x="336" y="510"/>
			<point x="267" y="510" type="curve" smooth="yes"/>
			<point x="136" y="510"/>
			<point x="85" y="406"/>
			<point x="85" y="250" type="curve" smooth="yes"/>
			<point x="85" y="63"/>
			<point x="158" y="-10"/>
		</contour>
		<contour>
			<point x="269" y="31" type="curve" smooth="yes"/>
			<point x="176" y="31"/>
			<point x="140" y="119"/>
			<point x="140" y="250" type="curve" smooth="yes"/>
			<point x="140" y="408"/>
			<point x="191" y="469"/>
			<point x="267" y="469" type="curve" smooth="yes"/>
			<point x="357" y="469"/>
			<point x="392" y="381"/>
			<point x="392" y="250" type="curve" smooth="yes"/>
			<point x="392" y="92"/>
			<point x="343" y="31"/>
		</contour>
		<contour>
			<point x="447" y="280" type="line"/>
			<point x="456" y="409"/>
			<point x="520" y="460"/>
			<point x="587" y="460" type="curve" smooth="yes"/>
			<point x="658" y="460"/>
			<point x="697" y="407"/>
			<point x="708" y="323" type="curve" smooth="yes"/>
			<point x="710" y="309"/>
			<point x="711" y="295"/>
			<point x="712" y="280" type="curve"/>
		</contour>
	</outline>
</glyph>
<glyph name="Q.alt" format="2">
	<advance width="605"/>
	<outline>
		<contour>
			<point x="461" y="-141" type="curve" smooth="yes"/>
			<point x="490" y="-141"/>
			<point x="510" y="-125"/>
			<point x="510" y="-91" type="curve" smooth="yes"/>
			<point x="510" y="-67"/>
			<point x="490" y="-41"/>
			<point x="460" y="-41" type="curve" smooth="yes"/>
			<point x="432" y="-41"/>
			<point x="413" y="-67"/>
			<point x="413" y="-91" type="curve"/>
			<point x="461" y="-91" type="line"/>
			<point x="357" y="-91"/>
			<point x="378" y="20"/>
			<point x="217" y="66" type="curve"/>
			<point x="217" y="60" type="line"/>
			<point x="347" y="13"/>
			<point x="495" y="155"/>
			<point x="495" y="406" type="curve" smooth="yes"/>
			<point x="495" y="588"/>
			<point x="415" y="710"/>
			<point x="295" y="710" type="curve" smooth="yes"/>
			<point x="175" y="710"/>
			<point x="95" y="600"/>
			<point x="95" y="435" type="curve" smooth="yes"/>
			<point x="95" y="292"/>
			<point x="157" y="197"/>
			<point x="251" y="197" type="curve" smooth="yes"/>
			<point x="297" y="197"/>
			<point x="297" y="247"/>
			<point x="251" y="247" type="curve" smooth="yes"/>
			<point x="193" y="247"/>
			<point x="155" y="323"/>
			<point x="155" y="436" type="curve" smooth="yes"/>
			<point x="155" y="570"/>
			<point x="211" y="660"/>
			<point x="295" y="660" type="curve" smooth="yes"/>
			<point x="379" y="660"/>
			<point x="435" y="558"/>
			<point x="435" y="406" type="curve" smooth="yes"/>
			<point x="435" y="180"/>
			<point x="352" y="56"/>
			<point x="228" y="96" type="curve" smooth="yes"/>
			<point x="165" y="116"/>
			<point x="149" y="46"/>
			<point x="200" y="33" type="curve" smooth="yes"/>
			<point x="327" y="1"/>
			<point x="366" y="-141"/>
		</contour>
	</outline>
</glyph>
<glyph name="dieresis.case" format="2">
	<advance width="600"/>
	<anchor x="315" y="700" name="_top"/>
	<outline>
		<contour>
			<point x="420" y="763" type="curve" smooth="yes"/>
			<point x="446" y="763"/>
			<point x="463" y="781"/>
			<point x="463" y="807" type="curve" smooth="yes"/>
			<point x="463" y="832"/>
			<point x="446" y="849"/>
			<point x="420" y="849" type="curve" smooth="yes"/>
			<point x="395" y="849"/>
			<point x="378" y="832"/>
			<point x="378" y="807" type="curve" smooth="yes"/>
			<point x="378" y="781"/>
			<point x="395" y="763"/>
		</contour>
		<contour>
			<point x="208" y="763" type="curve" smooth="yes"/>
			<point x="234" y="763"/>
			<point x="251" y="781"/>
			<point x="251" y="807" type="curve" smooth="yes"/>
			<point x="251" y="832"/>
			<point x="234" y="849"/>
			<point x="208" y="849" type="curve" smooth="yes"/>
			<point x="183" y="849"/>
			<point x="166" y="832"/>
			<point x="166" y="807" type="curve" smooth="yes"/>
			<point x="166" y="781"/>
			<point x="183" y="763"/>
		</contour>
	</outline>
</glyph>
<glyph name="k.salt" format="2">
	<advance width="515"/>
	<guideline x="317" y="485" angle="238.2175"/>
	<guideline x="415" y="421" angle="238.2175"/>
	<guideline x="191" y="280" angle="305.0316"/>
	<outline>
		<contour>
			<point x="126" y="-10" type="curve" smooth="yes"/>
			<point x="143" y="-10"/>
			<point x="154" y="2"/>
			<point x="154" y="20" type="curve" smooth="yes"/>
			<point x="154" y="329" type="line" smooth="yes"/>
			<point x="154" y="408"/>
			<point x="200" y="460"/>
			<point x="270" y="460" type="curve" smooth="yes"/>
			<point x="340" y="460"/>
			<point x="386" y="412"/>
			<point x="386" y="340" type="curve" smooth="yes"/>
			<point x="386" y="281"/>
			<point x="338" y="241"/>
			<point x="265" y="241" type="curve" smooth="yes"/>
			<point x="253" y="241"/>
			<point x="245" y="233"/>
			<point x="245" y="221" type="curve" smooth="yes"/>
			<point x="245" y="209"/>
			<point x="253" y="201"/>
			<point x="265" y="201" type="curve" smooth="yes"/>
			<point x="274" y="201"/>
			<point x="283" y="195"/>
			<point x="288" y="186" type="curve" smooth="yes"/>
			<point x="395" y="13" type="line" smooth="yes"/>
			<point x="405" y="-3"/>
			<point x="417" y="-10"/>
			<point x="427" y="-10" type="curve" smooth="yes"/>
			<point x="444" y="-10"/>
			<point x="455" y="10"/>
			<point x="436" y="40" type="curve" smooth="yes"/>
			<point x="327" y="212" type="line"/>
			<point x="384" y="228"/>
			<point x="431" y="278"/>
			<point x="431" y="344" type="curve" smooth="yes"/>
			<point x="431" y="444"/>
			<point x="373" y="510"/>
			<point x="286" y="510" type="curve" smooth="yes"/>
			<point x="227" y="510"/>
			<point x="181" y="479"/>
			<point x="156" y="427" type="curve"/>
			<point x="154" y="427" type="line"/>
			<point x="154" y="730" type="line" smooth="yes"/>
			<point x="154" y="748"/>
			<point x="143" y="760"/>
			<point x="127" y="760" type="curve" smooth="yes"/>
			<point x="111" y="760"/>
			<point x="100" y="748"/>
			<point x="100" y="730" type="curve" smooth="yes"/>
			<point x="100" y="20" type="line" smooth="yes"/>
			<point x="100" y="2"/>
			<point x="110" y="-10"/>
		</contour>
	</outline>
</glyph>
